<svg viewBox="0 0 24 24" fill="none" xmlns="http://www.w3.org/2000/svg">
  <rect width="24" height="24" rx="4" fill="#1e1e1e"/>
  <path d="M256 120 L420 270 L400 270 L400 400 L300 400 L300 310 L212 310 L212 400 L112 400 L112 270 L92 270 Z" fill="white"/>
  <g id="bgCarrier" stroke-width="0"></g>
  <g id="tracerCarrier" stroke-linecap="round" stroke-linejoin="round"></g>
  <g id="iconCarrier"> 
    <path d="M5.77778 10.2222V18C5.77778 19.1046 6.67321 20 7.77778 20H12M5.77778 10.2222L11.2929 4.70711C11.6834 4.31658 12.3166 4.31658 12.7071 4.70711L17.5 9.5M5.77778 10.2222L4 12M18.2222 10.2222V18C18.2222 19.1046 17.3268 20 16.2222 20H12M18.2222 10.2222L20 12M18.2222 10.2222L17.5 9.5M17.5 9.5V6M12 20V15" stroke="#e6e6e6" stroke-width="2" stroke-linecap="round" stroke-linejoin="round"></path> 
  </g>
</svg>
